<?xml version="1.0" encoding="utf-8"?>
<!-- Generator: Adobe Illustrator 26.2.1, SVG Export Plug-In . SVG Version: 6.00 Build 0)  -->
<svg version="1.1" id="Layer_1" xmlns="http://www.w3.org/2000/svg" xmlns:xlink="http://www.w3.org/1999/xlink" x="0px" y="0px"
	 viewBox="0 0 524.83 74.86" style="enable-background:new 0 0 524.83 74.86;" xml:space="preserve">
<style type="text/css">
	.st0{fill:#F15B43;}
	.st1{fill:#F7B0BE;}
</style>
<g>
	<path class="st0" d="M82.88,24.68v27.21c0,14.77-9.37,22.97-25.31,22.97c-6.31,0-11.89-1.35-16.13-5.68
		c-4.23,4.32-9.73,5.68-16.13,5.68C9.28,74.86,0,66.67,0,51.89V24.68h20.36v25.86c0,5.77,1.98,8.11,5.41,8.11
		c3.51,0,5.5-2.34,5.5-8.11V24.68h20.36v25.86c0,5.77,1.98,8.11,5.5,8.11c3.69,0,5.41-2.34,5.41-8.11V24.68H82.88z"/>
	<path class="st1" d="M140.3,47.48v26.49h-18.92v-6.49c-2.34,4.96-7.03,7.39-13.96,7.39c-12.07,0-18.29-6.85-18.29-15.32
		c0-9.55,7.21-14.86,22.52-14.86h8.2c-0.63-3.78-3.51-5.77-9.28-5.77c-4.41,0-9.37,1.44-12.61,3.87l-6.49-13.42
		c5.77-3.6,14.5-5.58,22.16-5.58C130.57,23.78,140.3,31.08,140.3,47.48z M121.86,58.38v-3.42h-5.04c-4.32,0-6.22,1.44-6.22,4.14
		c0,2.25,1.8,3.96,4.87,3.96C118.26,63.06,120.78,61.62,121.86,58.38z"/>
	<path class="st1" d="M205.93,49.28c0,15.86-10.9,25.58-23.78,25.58c-6.13,0-10.54-1.62-13.51-4.96v4.05h-19.37V7.12h20.36v20.9
		c2.97-2.88,7.12-4.23,12.52-4.23C195.03,23.78,205.93,33.42,205.93,49.28z M185.3,49.28c0-6.4-3.51-9.64-8.02-9.64
		c-4.5,0-8.02,3.24-8.02,9.64c0,6.4,3.51,9.73,8.02,9.73C181.79,59.01,185.3,55.67,185.3,49.28z"/>
	<path class="st1" d="M210.26,10.36C210.26,4.5,215.03,0,222.51,0c7.48,0,12.25,4.14,12.25,10c0,6.22-4.78,10.72-12.25,10.72
		C215.03,20.72,210.26,16.22,210.26,10.36z M212.33,24.68h20.36v49.28h-20.36V24.68z"/>
	<path class="st1" d="M267.49,43.68l26.86-3.03l1.72,15.22l-26.86,3.03L267.49,43.68z"/>
	<path class="st0" d="M327.81,70l5.59-13.42c4.68,2.79,11.35,4.41,17.21,4.41c4.96,0,6.31-0.9,6.31-2.34
		c0-5.04-28.38,1.71-28.38-18.02c0-9.28,8.65-16.85,25.22-16.85c7.21,0,14.86,1.35,20.09,4.05l-5.59,13.42
		c-5.04-2.79-10.09-3.6-14.23-3.6c-5.23,0-6.67,1.17-6.67,2.34c0,5.13,28.29-1.53,28.29,18.2c0,8.92-8.38,16.67-25.5,16.67
		C341.69,74.86,332.86,72.88,327.81,70z"/>
	<path class="st1" d="M430.51,47.48v26.49h-18.92v-6.49c-2.34,4.96-7.03,7.39-13.96,7.39c-12.07,0-18.29-6.85-18.29-15.32
		c0-9.55,7.21-14.86,22.52-14.86h8.2c-0.63-3.78-3.51-5.77-9.28-5.77c-4.41,0-9.37,1.44-12.61,3.87l-6.49-13.42
		c5.77-3.6,14.5-5.58,22.16-5.58C420.78,23.78,430.51,31.08,430.51,47.48z M410.15,54.48v-3.42h-5.04c-4.32,0-6.22,1.44-6.22,4.14
		c0,2.25,1.8,3.96,4.87,3.96C406.55,59.16,409.07,57.72,410.15,54.48z"/>
	<path class="st1" d="M496,49.28c0,15.86-10.9,25.58-23.78,25.58c-6.13,0-10.54-1.62-13.51-4.96v4.05h-19.37V7.12h20.36v20.9
		c2.97-2.88,7.12-4.23,12.52-4.23C485.1,23.78,496,33.42,496,49.28z M475.37,49.28c0-6.4-3.51-9.64-8.02-9.64
		c-4.5,0-8.02,3.24-8.02,9.64c0,6.4,3.51,9.73,8.02,9.73C471.86,59.01,475.37,55.67,475.37,49.28z"/>
	<path class="st1" d="M500.32,10.36C500.32,4.5,505.1,0,512.57,0c7.48,0,12.25,4.14,12.25,10c0,6.22-4.78,10.72-12.25,10.72
		C505.1,20.72,500.32,16.22,500.32,10.36z M502.39,24.68h20.36v49.28h-20.36V24.68z"/>
</g>
</svg>
